<svg id="Layer_1" data-name="Layer 1" xmlns="http://www.w3.org/2000/svg"
    width="1000" height="1414" font-family="Times New Roman"
>
    <!-- viewBox="0 0 1000 1000" -->
    <defs>
        <style>.cls-1{fill:#f4795b;}</style>
    </defs>
<!--    <circle class="cls-1" cx="500" cy="500" r="500" />-->
<!--    <svg height="100" width="100">-->
<!--        <text x="500" y="0" fill="black">&amp;</text>-->
<!--    </svg>-->
<!--        <line x1="500" y1="500" x2="500" y2="0" stroke="black"  stroke-width="10" />-->
<!--        <line x1="500" y1="500" x2="0" y2="0" stroke="black"  stroke-width="10" />-->
<!--        <line x1="500" y1="500" x2="0" y2="500" stroke="black"  stroke-width="10" />-->
<!--        <line x1="500" y1="500" x2="0" y2="1000" stroke="black"  stroke-width="10" />-->
<!--        <line x1="500" y1="500" x2="500" y2="1000" stroke="black"  stroke-width="10" />-->
<!--        <line x1="500" y1="500" x2="1000" y2="1000" stroke="black"  stroke-width="10" />-->
<!--        <line x1="500" y1="500" x2="1000" y2="500" stroke="black"  stroke-width="10" />-->
<!--        <line x1="500" y1="500" x2="1000" y2="0" stroke="black"  stroke-width="10" />-->
        <rect width="100%" height="100%" fill="skyblue" />
        <text x="477" y="70" fill="black" font-size="100" font-weight="bold">?</text>
        <text x="477" y="998" fill="black" font-size="100" font-weight="bold">?</text>
        <text x="0" y="538" fill="black" font-size="100" font-weight="bold">?</text>
        <text x="955" y="538" fill="black" font-size="100" font-weight="bold">?</text>

        <text x="465" y="575" fill="black" font-size="200" font-weight="bold">I</text>

        <g transform="rotate(45.0 500 500)">
            <text x="510" y="70" fill="black" font-size="100" font-weight="bold" rotate="-45">?</text>
            <text x="510" y="1015" fill="black" font-size="100" font-weight="bold" rotate="-45">?</text>
            <text x="35" y="540" fill="black" font-size="100" font-weight="bold" rotate="-45">?</text>
            <text x="984" y="540" fill="black" font-size="100" font-weight="bold" rotate="-45">?</text>
        </g>

        <g id="arrow">
            <line x1="220" y1="220" x2="390" y2="390" stroke="black"  stroke-width="10" />
            <polyline points="400,400,330,370,370,330" />
        </g>
        <g transform="rotate(45 500 500)">
            <use href="#arrow" />
        </g>
        <g transform="rotate(90 500 500)">
            <use href="#arrow" />
        </g>
        <g transform="rotate(135 500 500)">
            <use href="#arrow" />
        </g>
        <g transform="rotate(180 500 500)">
            <use href="#arrow" />
        </g>
        <g transform="rotate(-135 500 500)">
            <use href="#arrow" />
        </g>
        <g transform="rotate(-90 500 500)">
            <use href="#arrow" />
        </g>
        <g transform="rotate(-45 500 500)">
            <use href="#arrow" />
        </g>

    <!--        <text x="500" y="200" fill="black" font-size="100" font-family="monospace">?</text>-->
<!--        <text x="500" y="300" fill="black" font-size="100" font-family="monospace">?</text>-->
<!--        <text x="500" y="400" fill="black" font-size="100" font-family="monospace">?</text>-->
<!--        <text x="500" y="500" fill="black" font-size="100" font-family="monospace">?</text>-->
        <text x="500" y="1200" fill="black" font-size="100" text-anchor="middle">நான் யார்?</text>
</svg>
