<svg id="Layer_1" data-name="Layer 1" xmlns="http://www.w3.org/2000/svg"
    width="2058" height="2058" font-family="Times New Roman"
	xmlns:xlink="http://www.w3.org/1999/xlink"
>
    <!-- viewBox="0 0 1000 1000" -->
    <defs>
        <polygon id="shape1" points="1981.8642910141289,1024 1981.8642910141289,661.9613280324877 1800.8449550303728,661.9613280324877 1800.8449550303728,842.9806640162438 1748.0773439350246,842.9806640162438 1748.0773439350246,299.9226560649754 1748.0773439350246,299.9226560649754 1205.0193359837563,299.9226560649754 1205.0193359837563,247.15504496962717 1386.0386719675123,247.15504496962717 1386.0386719675123,66.13570898587102 1024,66.13570898587102 1024,66.13570898587102 661.9613280324877,66.13570898587102 661.9613280324877,247.15504496962717 842.9806640162438,247.15504496962717 842.9806640162438,299.9226560649754 299.9226560649754,299.9226560649754 299.9226560649754,299.9226560649754 299.9226560649754,842.9806640162438 247.15504496962717,842.9806640162438 247.15504496962717,661.9613280324877 66.13570898587102,661.9613280324877 66.13570898587102,1024 66.13570898587102,1024 66.13570898587102,1386.0386719675123 247.15504496962717,1386.0386719675123 247.15504496962717,1205.0193359837563 299.9226560649754,1205.0193359837563 299.9226560649754,1748.0773439350246 299.9226560649754,1748.0773439350246 842.9806640162438,1748.0773439350246 842.9806640162438,1800.8449550303728 661.9613280324877,1800.8449550303728 661.9613280324877,1981.8642910141289 1024,1981.8642910141289 1024,1981.8642910141289 1386.0386719675123,1981.8642910141289 1386.0386719675123,1800.8449550303728 1205.0193359837563,1800.8449550303728 1205.0193359837563,1748.0773439350246 1748.0773439350246,1748.0773439350246 1748.0773439350246,1748.0773439350246 1748.0773439350246,1205.0193359837563 1800.8449550303728,1205.0193359837563 1800.8449550303728,1386.0386719675123 1981.8642910141289,1386.0386719675123 1981.8642910141289,1024" fill="transparent" stroke="blue"/>
<polygon id="shape2" points="1955.4804854664549,1024 1955.4804854664549,688.3451335801618 1827.228760578047,688.3451335801618 1827.228760578047,869.364469563918 1721.6935383873506,869.364469563918 1721.6935383873506,326.3064616126495 1721.6935383873506,326.3064616126495 1178.635530436082,326.3064616126495 1178.635530436082,220.77123942195306 1359.654866419838,220.77123942195306 1359.654866419838,92.51951453354513 1024,92.51951453354513 1024,92.51951453354513 688.3451335801618,92.51951453354513 688.3451335801618,220.77123942195306 869.364469563918,220.77123942195306 869.364469563918,326.3064616126495 326.3064616126495,326.3064616126495 326.3064616126495,326.3064616126495 326.3064616126495,869.364469563918 220.77123942195306,869.364469563918 220.77123942195306,688.3451335801618 92.51951453354513,688.3451335801618 92.51951453354513,1024 92.51951453354513,1024 92.51951453354513,1359.654866419838 220.77123942195306,1359.654866419838 220.77123942195306,1178.635530436082 326.3064616126495,1178.635530436082 326.3064616126495,1721.6935383873506 326.3064616126495,1721.6935383873506 869.364469563918,1721.6935383873506 869.364469563918,1827.228760578047 688.3451335801618,1827.228760578047 688.3451335801618,1955.4804854664549 1024,1955.4804854664549 1024,1955.4804854664549 1359.654866419838,1955.4804854664549 1359.654866419838,1827.228760578047 1178.635530436082,1827.228760578047 1178.635530436082,1721.6935383873506 1721.6935383873506,1721.6935383873506 1721.6935383873506,1721.6935383873506 1721.6935383873506,1178.635530436082 1827.228760578047,1178.635530436082 1827.228760578047,1359.654866419838 1955.4804854664549,1359.654866419838 1955.4804854664549,1024" fill="transparent" stroke="blue"/>
<polygon id="shape3" points="1929.0966799187809,1024 1929.0966799187809,714.7289391278359 1853.612566125721,714.7289391278359 1853.612566125721,895.7482751115921 1695.3097328396764,895.7482751115921 1695.3097328396764,352.69026716032363 1695.3097328396764,352.69026716032363 1152.2517248884078,352.69026716032363 1152.2517248884078,194.38743387427894 1333.271060872164,194.38743387427894 1333.271060872164,118.90332008121925 1024,118.90332008121925 1024,118.90332008121925 714.7289391278359,118.90332008121925 714.7289391278359,194.38743387427894 895.7482751115921,194.38743387427894 895.7482751115921,352.69026716032363 352.69026716032363,352.69026716032363 352.69026716032363,352.69026716032363 352.69026716032363,895.7482751115921 194.38743387427894,895.7482751115921 194.38743387427894,714.7289391278359 118.90332008121925,714.7289391278359 118.90332008121925,1024 118.90332008121925,1024 118.90332008121925,1333.271060872164 194.38743387427894,1333.271060872164 194.38743387427894,1152.2517248884078 352.69026716032363,1152.2517248884078 352.69026716032363,1695.3097328396764 352.69026716032363,1695.3097328396764 895.7482751115921,1695.3097328396764 895.7482751115921,1853.612566125721 714.7289391278359,1853.612566125721 714.7289391278359,1929.0966799187809 1024,1929.0966799187809 1024,1929.0966799187809 1333.271060872164,1929.0966799187809 1333.271060872164,1853.612566125721 1152.2517248884078,1853.612566125721 1152.2517248884078,1695.3097328396764 1695.3097328396764,1695.3097328396764 1695.3097328396764,1695.3097328396764 1695.3097328396764,1152.2517248884078 1853.612566125721,1152.2517248884078 1853.612566125721,1333.271060872164 1929.0966799187809,1333.271060872164 1929.0966799187809,1024" fill="transparent" stroke="blue"/>
<circle id="shape4" cx="1024" cy="1024" r="684" fill="transparent" stroke="blue"/>
<circle id="shape5" cx="1024" cy="1024" r="672" fill="transparent" stroke="blue"/>
<circle id="shape6" cx="1024" cy="1024" r="581" fill="transparent" stroke="blue"/>
<circle id="shape7" cx="1024" cy="1024" r="491" fill="transparent" stroke="blue"/>
<path id="shape8" d="M 1593.640154459962 1137.3084716781455 C 1682.4107045605797 1154.9660319522538, 1604.8000648477982 1024.0, 1695.3097328396764 1024.0 C 1604.8000648477982 1024.0, 1682.4107045605797 893.0339680477465, 1593.640154459962 910.6915283218549 C 1682.4107045605797 893.0339680477465, 1560.5892923941087 801.7374376661778, 1644.2093221461969 767.1008872568212 C 1560.5892923941087 801.7374376661778, 1582.173643299131 651.0402952979341, 1506.917604744292 701.3247726347087 C 1582.173643299131 651.0402952979341, 1434.6876643674648 613.3123356325352, 1498.6876643674648 549.3123356325352 C 1434.6876643674648 613.3123356325352, 1396.959704702066 465.82635670086904, 1346.6752273652914 541.0823952557081 C 1396.959704702066 465.82635670086904, 1246.2625623338222 487.41070760589116, 1280.8991127431789 403.790677853803 C 1246.2625623338222 487.41070760589116, 1154.9660319522536 365.5892954394203, 1137.3084716781452 454.3598455400378 C 1154.9660319522536 365.5892954394203, 1024.0 443.19993515220176, 1024.0 352.69026716032363 C 1024.0 443.19993515220176, 893.0339680477466 365.5892954394203, 910.6915283218549 454.3598455400378 C 893.0339680477466 365.5892954394203, 801.7374376661778 487.41070760589116, 767.1008872568212 403.790677853803 C 801.7374376661778 487.41070760589116, 651.0402952979343 465.82635670086904, 701.3247726347088 541.082395255708 C 651.0402952979343 465.82635670086904, 613.3123356325353 613.3123356325352, 549.3123356325353 549.3123356325352 C 613.3123356325353 613.3123356325352, 465.82635670086904 651.0402952979341, 541.082395255708 701.3247726347087 C 465.82635670086904 651.0402952979341, 487.41070760589116 801.7374376661778, 403.790677853803 767.1008872568211 C 487.41070760589116 801.7374376661778, 365.5892954394203 893.0339680477463, 454.3598455400378 910.6915283218547 C 365.5892954394203 893.0339680477463, 443.19993515220176 1023.9999999999999, 352.69026716032363 1023.9999999999999 C 443.19993515220176 1023.9999999999999, 365.5892954394203 1154.9660319522536, 454.3598455400378 1137.3084716781452 C 365.5892954394203 1154.9660319522536, 487.41070760589105 1246.2625623338222, 403.7906778538029 1280.8991127431786 C 487.41070760589105 1246.2625623338222, 465.8263567008689 1396.9597047020657, 541.082395255708 1346.6752273652912 C 465.8263567008689 1396.9597047020657, 613.3123356325352 1434.6876643674645, 549.3123356325352 1498.6876643674645 C 613.3123356325352 1434.6876643674645, 651.0402952979341 1582.173643299131, 701.3247726347087 1506.917604744292 C 651.0402952979341 1582.173643299131, 801.7374376661776 1560.5892923941087, 767.1008872568209 1644.2093221461969 C 801.7374376661776 1560.5892923941087, 893.0339680477463 1682.4107045605797, 910.6915283218547 1593.640154459962 C 893.0339680477463 1682.4107045605797, 1023.9999999999999 1604.8000648477982, 1023.9999999999999 1695.3097328396764 C 1023.9999999999999 1604.8000648477982, 1154.9660319522536 1682.4107045605797, 1137.3084716781452 1593.640154459962 C 1154.9660319522536 1682.4107045605797, 1246.2625623338222 1560.5892923941087, 1280.8991127431789 1644.2093221461969 C 1246.2625623338222 1560.5892923941087, 1396.9597047020661 1582.1736432991306, 1346.6752273652914 1506.9176047442918 C 1396.9597047020661 1582.1736432991306, 1434.6876643674645 1434.6876643674648, 1498.6876643674645 1498.6876643674648 C 1434.6876643674645 1434.6876643674648, 1582.173643299131 1396.959704702066, 1506.917604744292 1346.6752273652914 C 1582.173643299131 1396.959704702066, 1560.5892923941087 1246.2625623338224, 1644.2093221461969 1280.899112743179 C 1560.5892923941087 1246.2625623338224, 1682.4107045605797 1154.9660319522538, 1593.640154459962 1137.3084716781455" fill="transparent" stroke="blue"/>
<path id="shape9" d="M 1476.9692626420208 1211.626011924466 C 1560.5892923941087 1246.2625623338224, 1514.2903968559203 1024.0, 1604.8000648477982 1024.0 C 1514.2903968559203 1024.0, 1560.5892923941087 801.7374376661778, 1476.9692626420208 836.3739880755344 C 1560.5892923941087 801.7374376661778, 1370.6876643674648 677.3123356325352, 1434.6876643674648 613.3123356325352 C 1370.6876643674648 677.3123356325352, 1246.2625623338222 487.41070760589116, 1211.6260119244655 571.0307373579792 C 1246.2625623338222 487.41070760589116, 1024.0 533.7096031440798, 1024.0 443.19993515220176 C 1024.0 533.7096031440798, 801.7374376661778 487.41070760589116, 836.3739880755345 571.0307373579792 C 801.7374376661778 487.41070760589116, 677.3123356325352 677.3123356325352, 613.3123356325353 613.3123356325352 C 677.3123356325352 677.3123356325352, 487.41070760589116 801.7374376661778, 571.0307373579792 836.3739880755344 C 487.41070760589116 801.7374376661778, 533.7096031440798 1023.9999999999999, 443.19993515220176 1023.9999999999999 C 533.7096031440798 1023.9999999999999, 487.41070760589105 1246.2625623338222, 571.0307373579792 1211.6260119244655 C 487.41070760589105 1246.2625623338222, 677.3123356325352 1370.6876643674648, 613.3123356325352 1434.6876643674645 C 677.3123356325352 1370.6876643674648, 801.7374376661776 1560.5892923941087, 836.3739880755342 1476.9692626420208 C 801.7374376661776 1560.5892923941087, 1023.9999999999999 1514.2903968559203, 1023.9999999999999 1604.8000648477982 C 1023.9999999999999 1514.2903968559203, 1246.2625623338222 1560.5892923941087, 1211.6260119244657 1476.9692626420208 C 1246.2625623338222 1560.5892923941087, 1370.6876643674645 1370.6876643674648, 1434.6876643674645 1434.6876643674648 C 1370.6876643674645 1370.6876643674648, 1560.5892923941087 1246.2625623338224, 1476.9692626420208 1211.626011924466" fill="transparent" stroke="blue"/>
<polygon id="shape10" points="1024.0,533.709603 550.415843,1150.896492 1497.584157,1150.896492" fill="transparent" stroke="blue"/>
<polygon id="shape11" points="1024.0,1514.290397 550.415843,897.103508 1497.584157,897.103508" fill="transparent" stroke="blue"/>
<polygon id="shape12" points="1024.0,897.103508 782.5157852292388,1370.687665 1265.4842147707611,1370.687665" fill="transparent" stroke="blue"/>
<polygon id="shape13" points="1024.0,677.312335 676.2720762546255,1267.892178310352 1371.7279237453745,1267.892178310352" fill="transparent" stroke="blue"/>
<polygon id="shape14" points="1024,1082.8928671156225 741.4941418113374,677.3123350000001 1306.5058581886626,677.3123350000001" fill="transparent" stroke="blue"/>
<polygon id="shape15" points="1024.0,1370.687665 685.0548145836442,795.0243925831202 1362.9451854163558,795.0243925831202" fill="transparent" stroke="blue"/>
<polygon id="shape16" points="1024,795.0243925831201 854.549097354708,1082.8928671156225 1193.450902645292,1082.8928671156225" fill="transparent" stroke="blue"/>
<polygon id="shape17" points="1024,1267.892178310352 862.8295525591147,951.0436378262759 1185.1704474408853,951.0436378262759" fill="transparent" stroke="blue"/>
<polygon id="shape18" points="1024.0,1150.896492 900.7713613679994,1004.3690444435308 1147.2286386320006,1004.3690444435308" fill="transparent" stroke="blue"/>
<circle id="shape19" cx="1024" cy="1024" r="5" fill="transparent" stroke="blue"/>
    </defs>
    <g >
        <!--    - The visual output of the XOR operation will appear here.
             You might need a placeholder shape or simply let the filter define the output. -->
			 <rect x="0" y="0" width="2058px" height="2058px" fill="white" />
	 <g transform="translate(5, 5)">
		 <!-- <rect x="0" y="0" width="2048px" height="2048px" fill="white"/> -->
         <use href="#shape1" x="0" y="0" width="2048px" height="2048px" />
         <use href="#shape2" x="0" y="0" width="2048px" height="2048px" />
         <use href="#shape3" x="0" y="0" width="2048px" height="2048px" />
         <use href="#shape4" x="0" y="0" width="2048px" height="2048px" />
         <use href="#shape5" x="0" y="0" width="2048px" height="2048px" />
         <use href="#shape6" x="0" y="0" width="2048px" height="2048px" />
         <use href="#shape7" x="0" y="0" width="2048px" height="2048px" />
         <use href="#shape8" x="0" y="0" width="2048px" height="2048px" />
         <use href="#shape9" x="0" y="0" width="2048px" height="2048px" />
         <use href="#shape10" x="0" y="0" width="2048px" height="2048px" />
         <use href="#shape11" x="0" y="0" width="2048px" height="2048px" />
         <use href="#shape12" x="0" y="0" width="2048px" height="2048px" />
         <use href="#shape13" x="0" y="0" width="2048px" height="2048px" />
         <use href="#shape14" x="0" y="0" width="2048px" height="2048px" />
         <use href="#shape15" x="0" y="0" width="2048px" height="2048px" />
         <use href="#shape16" x="0" y="0" width="2048px" height="2048px" />
         <use href="#shape17" x="0" y="0" width="2048px" height="2048px" />
         <use href="#shape18" x="0" y="0" width="2048px" height="2048px" />
         <use href="#shape19" x="0" y="0" width="2048px" height="2048px" />
	 </g>
    </g>

</svg>
