<svg id="Layer_1" data-name="Layer 1" xmlns="http://www.w3.org/2000/svg"
    width="2058" height="2058" font-family="Times New Roman"
	xmlns:xlink="http://www.w3.org/1999/xlink"
>
    <!-- viewBox="0 0 1000 1000" -->
    <defs>
        <path id="shape1" d="M 1902.7836112412942 1198.8009285264513 C 2028.324127132908 1223.7724897445157, 1920.0 1024.0, 2048.0 1024.0 C 1920.0 1024.0, 2028.324127132908 824.2275102554847, 1902.7836112412945 849.1990714735491 C 2028.324127132908 824.2275102554847, 1851.7960611301128 681.1156446008795, 1970.0526412915576 632.132165258148 C 1851.7960611301128 681.1156446008795, 1875.4248829978064 455.09608138792737, 1768.9967726230807 526.2090712144364 C 1875.4248829978064 455.09608138792737, 1657.5676759431467 390.4323240568534, 1748.0773439350246 299.9226560649753 C 1657.5676759431467 390.4323240568534, 1592.9039186120726 172.57511700219368, 1521.7909287855637 279.0032273769194 C 1592.9039186120726 172.57511700219368, 1366.8843553991205 196.2039388698871, 1415.867834741852 77.94735870844238 C 1366.8843553991205 196.2039388698871, 1223.7724897445155 19.67587286709204, 1198.800928526451 145.21638875870553 C 1223.7724897445155 19.67587286709204, 1024.0 128.0, 1024.0 0.0 C 1024.0 128.0, 824.2275102554847 19.67587286709204, 849.1990714735491 145.21638875870553 C 824.2275102554847 19.67587286709204, 681.1156446008796 196.2039388698871, 632.1321652581481 77.94735870844238 C 681.1156446008796 196.2039388698871, 455.0960813879276 172.57511700219356, 526.2090712144367 279.0032273769193 C 455.0960813879276 172.57511700219356, 390.43232405685353 390.4323240568534, 299.9226560649754 299.9226560649753 C 390.43232405685353 390.4323240568534, 172.57511700219356 455.09608138792737, 279.0032273769193 526.2090712144364 C 172.57511700219356 455.09608138792737, 196.2039388698871 681.1156446008795, 77.94735870844238 632.132165258148 C 196.2039388698871 681.1156446008795, 19.67587286709204 824.2275102554843, 145.21638875870553 849.1990714735488 C 19.67587286709204 824.2275102554843, 128.0 1023.9999999999999, 0.0 1023.9999999999999 C 128.0 1023.9999999999999, 19.67587286709204 1223.7724897445155, 145.21638875870553 1198.8009285264511 C 19.67587286709204 1223.7724897445155, 196.203938869887 1366.8843553991203, 77.94735870844227 1415.8678347418518 C 196.203938869887 1366.8843553991203, 172.57511700219345 1592.9039186120724, 279.0032273769193 1521.7909287855632 C 172.57511700219345 1592.9039186120724, 390.4323240568533 1657.5676759431465, 299.9226560649752 1748.0773439350246 C 390.4323240568533 1657.5676759431465, 455.09608138792737 1875.4248829978064, 526.2090712144364 1768.9967726230807 C 455.09608138792737 1875.4248829978064, 681.115644600879 1851.7960611301128, 632.1321652581476 1970.0526412915574 C 681.115644600879 1851.7960611301128, 824.2275102554843 2028.324127132908, 849.1990714735487 1902.7836112412942 C 824.2275102554843 2028.324127132908, 1023.9999999999999 1920.0, 1023.9999999999998 2048.0 C 1023.9999999999999 1920.0, 1223.7724897445155 2028.324127132908, 1198.800928526451 1902.7836112412945 C 1223.7724897445155 2028.324127132908, 1366.8843553991205 1851.7960611301128, 1415.8678347418522 1970.0526412915574 C 1366.8843553991205 1851.7960611301128, 1592.903918612073 1875.424882997806, 1521.790928785564 1768.9967726230802 C 1592.903918612073 1875.424882997806, 1657.5676759431465 1657.5676759431467, 1748.0773439350246 1748.0773439350248 C 1657.5676759431465 1657.5676759431467, 1875.4248829978064 1592.9039186120726, 1768.9967726230807 1521.7909287855637 C 1875.4248829978064 1592.9039186120726, 1851.7960611301128 1366.884355399121, 1970.0526412915574 1415.8678347418527 C 1851.7960611301128 1366.884355399121, 2028.324127132908 1223.7724897445157, 1902.7836112412942 1198.8009285264513" fill="blue" />
<path id="shape2" d="M 1733.5394809686682 1317.9008760563893 C 1851.7960611301128 1366.884355399121, 1792.0 1024.0, 1920.0 1024.0 C 1792.0 1024.0, 1851.7960611301128 681.1156446008795, 1733.5394809686682 730.0991239436111 C 1851.7960611301128 681.1156446008795, 1567.0580079512686 480.94199204873144, 1657.5676759431467 390.4323240568534 C 1567.0580079512686 480.94199204873144, 1366.8843553991205 196.2039388698871, 1317.900876056389 314.46051903133184 C 1366.8843553991205 196.2039388698871, 1024.0 256.0, 1024.0 128.0 C 1024.0 256.0, 681.1156446008796 196.2039388698871, 730.0991239436111 314.46051903133184 C 681.1156446008796 196.2039388698871, 480.94199204873155 480.94199204873144, 390.43232405685353 390.4323240568534 C 480.94199204873155 480.94199204873144, 196.2039388698871 681.1156446008795, 314.46051903133184 730.099123943611 C 196.2039388698871 681.1156446008795, 256.0 1023.9999999999999, 128.0 1023.9999999999999 C 256.0 1023.9999999999999, 196.203938869887 1366.8843553991203, 314.4605190313317 1317.9008760563888 C 196.203938869887 1366.8843553991203, 480.94199204873144 1567.0580079512683, 390.4323240568533 1657.5676759431465 C 480.94199204873144 1567.0580079512683, 681.115644600879 1851.7960611301128, 730.0991239436106 1733.5394809686682 C 681.115644600879 1851.7960611301128, 1023.9999999999999 1792.0, 1023.9999999999999 1920.0 C 1023.9999999999999 1792.0, 1366.8843553991205 1851.7960611301128, 1317.900876056389 1733.5394809686682 C 1366.8843553991205 1851.7960611301128, 1567.0580079512683 1567.0580079512686, 1657.5676759431465 1657.5676759431467 C 1567.0580079512683 1567.0580079512686, 1851.7960611301128 1366.884355399121, 1733.5394809686682 1317.9008760563893" fill="blue" />
<circle id="shape3" cx="1024" cy="1024" r="768" fill="blue"/>
<polygon id="shape4" points="1024.0,256.0 282.16896499999996,1222.773027 1765.8310350000002,1222.773027" fill="blue"/>
<polygon id="shape5" points="1024.0,1792.0 282.16896499999996,825.226973 1765.8310350000002,825.226973" fill="blue"/>
<polygon id="shape6" points="1024.0,825.226973 645.7346376495261,1567.058008 1402.2653623504739,1567.058008" fill="blue"/>
<polygon id="shape7" points="1024.0,480.941992 479.31251109370703,1406.0372481922352 1568.6874889062929,1406.0372481922352" fill="blue"/>
<polygon id="shape8" points="1024,1116.2508827417923 581.4775728913996,480.941992 1466.5224271086004,480.941992" fill="blue"/>
<polygon id="shape9" points="1024.0,1567.058008 493.0699558779422,665.3283461465988 1554.9300441220578,665.3283461465988" fill="blue"/>
<polygon id="shape10" points="1024,665.3283461465987 758.5689545002567,1116.2508827417923 1289.4310454997433,1116.2508827417923" fill="blue"/>
<polygon id="shape11" points="1024,1406.0372481922352 771.5396143035939,909.7197956781506 1276.460385696406,909.7197956781506" fill="blue"/>
<polygon id="shape12" points="1024.0,1222.773027 830.9723683466005,993.2497056629172 1217.0276316533993,993.2497056629172" fill="blue"/>
<circle id="shape13" cx="1024" cy="1024" r="8" fill="blue"/>
		<filter id="imageXor">
		  <feImage xlink:href="#shape1" result="input1" x="0" y="0" width="2048" height="2048"/>
		  <feImage xlink:href="#shape2" result="input2" x="0" y="0" width="2048" height="2048"/>
		  <feImage xlink:href="#shape3" result="input3" x="0" y="0" width="2048" height="2048"/>
		  <feImage xlink:href="#shape4" result="input4" x="0" y="0" width="2048" height="2048"/>
		  <feImage xlink:href="#shape5" result="input5" x="0" y="0" width="2048" height="2048"/>
		  <feImage xlink:href="#shape6" result="input6" x="0" y="0" width="2048" height="2048"/>
		  <feImage xlink:href="#shape7" result="input7" x="0" y="0" width="2048" height="2048"/>
		  <feImage xlink:href="#shape8" result="input8" x="0" y="0" width="2048" height="2048"/>
		  <feImage xlink:href="#shape9" result="input9" x="0" y="0" width="2048" height="2048"/>
		  <feImage xlink:href="#shape10" result="input10" x="0" y="0" width="2048" height="2048"/>
		  <feImage xlink:href="#shape11" result="input11" x="0" y="0" width="2048" height="2048"/>
		  <feImage xlink:href="#shape12" result="input12" x="0" y="0" width="2048" height="2048"/>
		  <feImage xlink:href="#shape13" result="input13" x="0" y="0" width="2048" height="2048"/>

		  <feComposite in="SourceGraphic" in2="input1" operator="xor" result="result1"/>
		  <feComposite in="result1" in2="input2" operator="xor" result="result2"/>
		  <feComposite in="result2" in2="input3" operator="xor" result="result3"/>
		  <feComposite in="result3" in2="input4" operator="xor" result="result4"/>
		  <feComposite in="result4" in2="input5" operator="xor" result="result5"/>
		  <feComposite in="result5" in2="input6" operator="xor" result="result6"/>
		  <feComposite in="result6" in2="input7" operator="xor" result="result7"/>
		  <feComposite in="result7" in2="input8" operator="xor" result="result8"/>
		  <feComposite in="result8" in2="input9" operator="xor" result="result9"/>
		  <feComposite in="result9" in2="input10" operator="xor" result="result10"/>
		  <feComposite in="result10" in2="input11" operator="xor" result="result11"/>
		  <feComposite in="result11" in2="input12" operator="xor" result="result12"/>
		  <feComposite in="result12" in2="input13" operator="xor"/>
		  
		</filter>
    </defs>
    <g >
        <!--    - The visual output of the XOR operation will appear here.
             You might need a placeholder shape or simply let the filter define the output. -->
			 <rect x="0" y="0" width="2058px" height="2058px" fill="white" />
	 <g transform="translate(5, 5)">
		 <rect x="0" y="0" width="2048px" height="2048px" fill="blue" filter="url(#imageXor)"/>
	 </g>
    </g>

</svg>
